# xmcd
#
# Track frame offsets:
#	150
#	13458
#	27875
#	46640
#	61813
#	84680
#	103340
#	114875
#	132035
#	145533
#
# Disc length: 2140 seconds
# Revision: 4
# Processed by: cddbd v1.5.2PL0 Copyright (c) Steve Scherf et al.
# Submitted via: dBpowerAMP V12.0
#
DISCID=7a085a0a
DTITLE=Mark Chesnutt - Almost Goodbye
DYEAR=1993
DGENRE=Country
TTITLE0=It Sure Is Monday
TTITLE1=Woman, Sensuous Woman
TTITLE2=Almost Goodbye
TTITLE3=I Just Wanted You To Know
TTITLE4=April's Fool
TTITLE5=Texas Is Bigger Than It Used To Be
TTITLE6=My Heart's Too Broke (To Pay Attention)
TTITLE7=Vickie Vance Gotta Dance
TTITLE8=Till A Better Memory Comes Along
TTITLE9=The Will
EXTD=
EXTT0=
EXTT1=
EXTT2=
EXTT3=
EXTT4=
EXTT5=
EXTT6=
EXTT7=
EXTT8=
EXTT9=
PLAYORDER=
